<svg xmlns="http://www.w3.org/2000/svg" width="417" height="278.41" viewBox="0 0 417 278.41"><defs><style>.a{fill:#1a1a1a;}.b{fill:#b7836e;}.c{fill:#fff;}.d{fill:#ccc;}.e{fill:#00b4c5;}.f{fill:#fcaf17;}.g{fill:#eee;}.h{fill:#f37021;}</style></defs><g transform="translate(-124 -3776.659)"><g transform="translate(124 3776.659)"><g transform="translate(295.007 200.744)"><g transform="translate(0 0)"><path class="a" d="M1397.338,694.922a1.574,1.574,0,1,0-1.573-1.574A1.574,1.574,0,0,0,1397.338,694.922Z" transform="translate(-1395.684 -691.692)"/><path class="a" d="M1429.655,694.87a1.656,1.656,0,1,0-1.654-1.656A1.655,1.655,0,0,0,1429.655,694.87Z" transform="translate(-1415.777 -691.558)"/><path class="a" d="M1462.31,694.948a1.534,1.534,0,1,0-1.532-1.534A1.533,1.533,0,0,0,1462.31,694.948Z" transform="translate(-1436.209 -691.759)"/><path class="a" d="M1397.2,727.322a1.656,1.656,0,1,0-1.654-1.656A1.655,1.655,0,0,0,1397.2,727.322Z" transform="translate(-1395.549 -711.773)"/><path class="a" d="M1429.521,727.269a1.737,1.737,0,1,0-1.735-1.737A1.736,1.736,0,0,0,1429.521,727.269Z" transform="translate(-1415.643 -711.638)"/><path class="a" d="M1462.175,727.348a1.615,1.615,0,1,0-1.613-1.615A1.615,1.615,0,0,0,1462.175,727.348Z" transform="translate(-1436.074 -711.84)"/><path class="a" d="M1397.4,759.854a1.534,1.534,0,1,0-1.533-1.534A1.533,1.533,0,0,0,1397.4,759.854Z" transform="translate(-1395.75 -732.19)"/><path class="a" d="M1429.723,759.8a1.615,1.615,0,1,0-1.613-1.615A1.614,1.614,0,0,0,1429.723,759.8Z" transform="translate(-1415.845 -732.055)"/><ellipse class="a" cx="1.505" cy="1.507" rx="1.505" ry="1.507" transform="translate(24.596 24.624)"/></g></g><path d="M1088.353,267.481h-9.7a26.436,26.436,0,0,1-26.391-26.421V197.266a26.436,26.436,0,0,1,26.391-26.421h92.773a26.437,26.437,0,0,1,26.392,26.421V241.06a.632.632,0,1,1-1.264,0V197.266a25.17,25.17,0,0,0-25.128-25.155h-92.773a25.169,25.169,0,0,0-25.127,25.155V241.06a25.169,25.169,0,0,0,25.127,25.155h9.7a.633.633,0,0,1,0,1.266Z" transform="translate(-886.558 -166.452)"/><path d="M1292.614,425.028h-21.706a.633.633,0,0,1,0-1.266h21.706a.633.633,0,0,1,0,1.266Z" transform="translate(-1022.454 -323.999)"/><g transform="translate(202.328 79.749)"><g transform="translate(0 0)"><path class="b" d="M1201.228,455.33l.926,21.078,3.312,7.838-17.756,10.223-20.045-13.691,8.171-4.952.25-4.591s-8.178.362-9.445-9.046-.123-31.656-.123-31.656l23.407-9.027,16.782,18.347a9.787,9.787,0,0,1,6.1,7.154C1214.122,452.7,1206.7,459,1201.228,455.33Z" transform="translate(-1159.811 -402.343)"/><path class="a" d="M1188.078,414.722l1.24,11.7s.845,9.77-3.479,11.938-12.113,2.99-15.782,2.643-8.377.189-10.561-3.816-2.2-9.149-2.207-10.025a26.463,26.463,0,0,1,.331-2.977,17.806,17.806,0,0,1,5.066-.64c2.222.164,5.521-.151,6.285-.09a7.571,7.571,0,0,0,3.788-1.547c1.546-1.035,5.215-1.422,6.824-1.615s3.663.038,4.506-2.449a93.153,93.153,0,0,0,1.972-9.15s-3.933-3.811-4.9-7.153-1.714-7.653-1.714-7.653a24.215,24.215,0,0,1-11.063,6.526c-6.76,1.707-10.765-.113-10.765-.113l-.393,8.828s-5.046-3.982-5.336-6.844-.332-7.3,3.027-7.922c0,0-3.592-5.709-.824-11.7s8.31-9.486,11.811-9.66,8.148.424,11.653,2.723,7.561,7.864,7.721,9.109c0,0,7.766-.039,10.81.771s6.344,2.38,8.146,6.485.584,12.21-.508,15.085-1.681,4.21-1.681,4.21a9.442,9.442,0,0,0-7.595-1.607A11.793,11.793,0,0,0,1188.078,414.722Z" transform="translate(-1150.91 -372.109)"/><path class="c" d="M1207.719,505.716s-3.557,1.873-3.72,4.308a8.929,8.929,0,0,0,.713,4.2s-3.676,1.6-6.585.341-2.695-3.955-1.022-4.542,4.69.788,5.351-.772.169-4.3,2.3-4.722A2.654,2.654,0,0,1,1207.719,505.716Z" transform="translate(-1178.411 -454.016)"/><path class="c" d="M1221.307,505.723s.48,7.646-3.275,8.926h-.621s-.72-3.084,0-5S1221.307,505.723,1221.307,505.723Z" transform="translate(-1191.629 -454.803)"/><g transform="translate(0.857 1.455)"><path class="c" d="M1154.917,395.342s-3.592-5.71-.824-11.7a17.82,17.82,0,0,1,9.337-9.095c-.044.053-10.265,14.165-3.444,20.017,3.695,3.17,11.208,7.1,19.46.3a24.214,24.214,0,0,1-11.063,6.526c-6.76,1.707-10.765-.113-10.765-.113l-.393,8.828s-5.046-3.982-5.336-6.844S1151.558,395.961,1154.917,395.342Z" transform="translate(-1151.767 -374.545)"/></g><g transform="translate(6.378 51.508)"><path class="c" d="M1166.756,507.849a21.732,21.732,0,0,1,2.968-.566c.015,1.791-1.509,20.179,16,17.155a25.481,25.481,0,0,1-6.529.229c-3.669-.347-8.377.189-10.561-3.816s-2.2-9.15-2.207-10.025A26.382,26.382,0,0,1,1166.756,507.849Z" transform="translate(-1166.424 -507.283)"/><path class="c" d="M1218.011,552.405q.673-.074,1.384-.2C1218.931,552.282,1218.469,552.348,1218.011,552.405Z" transform="translate(-1198.58 -535.268)"/></g><path d="M1218.854,470.588c-.542-.086-.906.147-1.062,2.1-.174,2.182.391,2.566.88,2.547s.979-.693.956-2.251S1219.565,470.7,1218.854,470.588Z" transform="translate(-1192.046 -432.908)"/><path d="M1176.828,471.068c-.546-.071-.9.171-1.007,2.131-.116,2.185.459,2.555.947,2.522s.96-.718.9-2.275S1177.541,471.162,1176.828,471.068Z" transform="translate(-1165.894 -433.209)"/><g transform="translate(40.738 52.306)"><path d="M1259.314,532.481a.73.73,0,0,0,.679-.787l-.986-21.584a.713.713,0,0,0-.713-.712.728.728,0,0,0-.646.786l.985,21.583A.715.715,0,0,0,1259.314,532.481Z" transform="translate(-1257.648 -509.398)"/></g><g transform="translate(5.636 27.511)"><path d="M1176.706,485.74c.589,0,1.174-.011,1.749-.023.5-.008,1-.019,1.487-.021a40.733,40.733,0,0,0,8.894-.888c2.456-.554,5.239-1.18,6.9-3.638,1.678-2.48,2.028-5.7,2.145-8.23a32.008,32.008,0,0,0-.119-4.806c-.407-3.345-.969-8.329-1.078-9.3a7.525,7.525,0,1,1,11.751,8.644,7.479,7.479,0,0,1-9.352.16.68.68,0,0,0-.827,1.079,8.894,8.894,0,1,0-2.9-10.214.69.69,0,0,0-.04.317s.646,5.753,1.1,9.467a30.565,30.565,0,0,1,.111,4.59c-.109,2.352-.424,5.333-1.91,7.531-1.358,2.011-3.754,2.551-6.072,3.074a39.421,39.421,0,0,1-8.6.854c-.495,0-1,.013-1.506.021-3.958.078-8.045.155-10.36-3.374-2.181-3.328-2.2-7.695-2.208-11.919,0-.932,0-1.848-.032-2.73-.088-2.83.378-21.8.382-21.994a.681.681,0,0,0-.663-.7.7.7,0,0,0-.7.664c-.019.783-.472,19.2-.382,22.07.028.869.03,1.772.032,2.691.015,4.216.027,8.995,2.431,12.663C1169.275,485.307,1173.065,485.74,1176.706,485.74Z" transform="translate(-1164.457 -443.642)"/></g><g transform="translate(6.152 31.932)"><path d="M1166.5,458.794a.678.678,0,0,0,.614-.391c.067-.132,1.25-2.4,4.906-1.436a.661.661,0,0,0,.828-.484.678.678,0,0,0-.484-.83c-4.828-1.276-6.461,2.139-6.48,2.173a.682.682,0,0,0,.329.9A.7.7,0,0,0,1166.5,458.794Z" transform="translate(-1165.824 -455.368)"/></g><g transform="translate(22.229 31.564)"><path d="M1216.53,458.571a.68.68,0,0,0,.535-1.1c-3.934-5.03-8.2-2.387-8.244-2.36a.681.681,0,0,0,.73,1.149c.132-.082,3.291-1.986,6.444,2.051A.681.681,0,0,0,1216.53,458.571Z" transform="translate(-1208.509 -454.393)"/></g><path d="M1200.155,410.64a.745.745,0,0,0,.26-.048c.459-.181,2.814-1.676,4.145-13.481.765-6.8-3.037-11.675-7.19-12.969-5.088-1.589-11.167-1.211-12.906-1.05-4.039-7.743-9.251-10.663-12.942-11.747a15.925,15.925,0,0,0-12.7,1.59c-4.047,2.385-6.562,5.459-7.472,9.133a15.727,15.727,0,0,0,1.246,10.193,3.666,3.666,0,0,0-2.246,2.114c-1.73,3.481-1.26,10.332,5.241,13.989a.668.668,0,0,0,.924-.258.678.678,0,0,0-.257-.926c-5.734-3.227-6.188-9.185-4.692-12.2.21-.42.958-1.761,1.925-1.333a.681.681,0,0,0,.852-.98c-.03-.048-3-4.978-1.671-10.284.824-3.3,3.125-6.088,6.839-8.278a14.585,14.585,0,0,1,11.624-1.457c3.5,1.028,8.479,3.852,12.328,11.472a.673.673,0,0,0,.684.369c.069-.006,7.216-.794,12.818.949,2.927.913,7,4.734,6.241,11.52-1.235,10.972-3.324,12.379-3.345,12.391a.651.651,0,0,0-.357.869A.687.687,0,0,0,1200.155,410.64Z" transform="translate(-1149.492 -370.685)"/><g transform="translate(11.844 35.191)"><path d="M1187.153,480.844a.68.68,0,0,0,0-1.36c-1.455,0-4.027-.281-4.729-1.033a.374.374,0,0,1-.128-.3,12.621,12.621,0,0,1,.833-2.635c1.052-2.771,2.642-6.962,1.652-10.98a.667.667,0,0,0-.824-.5.685.685,0,0,0-.5.825c.889,3.6-.549,7.4-1.6,10.17a12.589,12.589,0,0,0-.917,3.03,1.741,1.741,0,0,0,.491,1.322C1182.764,480.8,1186.708,480.844,1187.153,480.844Z" transform="translate(-1180.937 -464.01)"/></g><g transform="translate(16.921 49.56)"><path d="M1197.963,514.125a4.976,4.976,0,0,1-3.349-2.61,2.652,2.652,0,0,1,.359-2.647,3.854,3.854,0,0,1,3.5-1.2c1.828.227,1.992.1,2.361-.172s.539-.4.862-2.207a3.848,3.848,0,0,1,2.187-2.994,2.641,2.641,0,0,1,2.63.441,4.768,4.768,0,0,1,1.372,3.823,7.936,7.936,0,0,1-3.069,6.347,7.789,7.789,0,0,1-4.639,1.552A7.674,7.674,0,0,1,1197.963,514.125Zm6.415-10.565a2.534,2.534,0,0,0-1.342,1.965c-.382,2.141-.686,2.54-1.392,3.061s-1.177.7-3.337.428a2.514,2.514,0,0,0-2.271.7,1.308,1.308,0,0,0-.147,1.335,3.78,3.78,0,0,0,2.466,1.774,6.352,6.352,0,0,0,5.658-1.016,6.571,6.571,0,0,0,2.515-5.264,3.6,3.6,0,0,0-.837-2.729,1.454,1.454,0,0,0-.88-.338A1.206,1.206,0,0,0,1204.378,503.56Z" transform="translate(-1194.417 -502.116)"/></g><g transform="translate(40.385 40.032)"><path d="M1263.76,487.294a.68.68,0,0,0,.3-1.289l-5.532-2.742,5.138-5.258a.681.681,0,0,0-.973-.953l-5.792,5.927a.683.683,0,0,0-.183.59.674.674,0,0,0,.367.5l6.371,3.158A.678.678,0,0,0,1263.76,487.294Z" transform="translate(-1256.71 -476.848)"/></g><g transform="translate(30.567 12.448)"><path d="M1231.324,409.2a.67.67,0,0,0,.528-.254l3.333-4.146a.679.679,0,1,0-1.057-.853L1230.8,408.1a.676.676,0,0,0,.1.955A.666.666,0,0,0,1231.324,409.2Z" transform="translate(-1230.644 -403.696)"/></g><g transform="translate(6.031 20.792)"><path d="M1180.743,455.953a.675.675,0,0,0,.462-.181c1.588-1.467,5.184-1.839,7.808-2.112a20.193,20.193,0,0,0,2.624-.368c2.259-.592,2.938-6.987,3.093-8.933l.554-2.169a.683.683,0,0,0-.166-.634,25.457,25.457,0,0,1-6.446-15.072.68.68,0,0,0-1.227-.382c-.292.4-7.3,9.677-21.106,6.46a.67.67,0,0,0-.816.506.678.678,0,0,0,.505.817c11.585,2.71,18.837-3.116,21.435-5.761a26.412,26.412,0,0,0,6.413,14.094l-.483,1.921c-.329,4.019-1.3,7.629-2.1,7.84a20.91,20.91,0,0,1-2.418.329c-2.816.292-6.671.691-8.592,2.465a.68.68,0,0,0,.461,1.18Z" transform="translate(-1165.504 -425.825)"/></g><g transform="translate(5.699 50.523)"><path d="M1165.3,506.9a.689.689,0,0,0,.367-.107c1.986-1.275,4.825-.559,4.857-.553a.68.68,0,0,0,.344-1.316c-.134-.036-3.439-.882-5.935.723a.68.68,0,0,0,.367,1.253Z" transform="translate(-1164.624 -504.669)"/></g><g transform="translate(14.187 68.239)"><path d="M1187.78,558.357c-.4-.088-.662-.25-.619-.369l2.269-6.221c.043-.12.373-.149.742-.07s.629.244.585.362l-2.268,6.222C1188.447,558.4,1188.133,558.428,1187.78,558.357Z" transform="translate(-1187.156 -551.652)"/></g></g><path class="d" d="M1258.982,460.017c0,7.472-4.006,13.529-8.947,13.529s-8.947-6.057-8.947-13.529,4.006-13.529,8.947-13.529S1258.982,452.546,1258.982,460.017Z" transform="translate(-1206.588 -417.905)"/><ellipse class="c" cx="6.88" cy="13.47" rx="6.88" ry="13.47" transform="translate(38.256 28.645)"/><g transform="translate(32.802 27.138)"><path d="M1248.664,471.871h-1.772c-5.686,0-10.313-6.554-10.313-14.609s4.627-14.61,10.313-14.61h1.312a.77.77,0,0,1,0,1.54h-1.312c-4.84,0-8.775,5.863-8.775,13.069s3.935,13.069,8.775,13.069h1.772a.77.77,0,0,1,0,1.54Z" transform="translate(-1236.578 -442.653)"/></g><g transform="translate(36.885 27.138)"><path d="M1255.692,471.871c-4.639,0-8.272-6.416-8.272-14.609s3.633-14.61,8.272-14.61,8.27,6.417,8.27,14.61S1260.329,471.871,1255.692,471.871Zm0-27.678c-3.65,0-6.733,5.985-6.733,13.069s3.083,13.069,6.733,13.069,6.731-5.984,6.731-13.069S1259.34,444.193,1255.692,444.193Z" transform="translate(-1247.42 -442.653)"/></g><path class="e" d="M1228.4,384.98c-4.9-2.865-9.189-8.388,4.945-2.621,3.313,1.352,8.078,9.669,7.558,21.227l-4.662.564s1.168-11.118-5.844-16.86" transform="translate(-1195.771 -376.384)"/><g transform="translate(22.418 2.213)"><path d="M1221.9,379.721l.636.765c2.767,1.406,7.041,5.751,7.041,5.751,4.242,4.53,6.266,10.542,6.017,17.869a.77.77,0,1,1-1.539-.052c.235-6.9-1.648-12.543-5.6-16.763l-6.554-6.219S1220.9,380.216,1221.9,379.721Z" transform="translate(-1216.768 -378.527)"/><path d="M1209.009,376.554" transform="translate(-1209.009 -376.554)"/><path d="M1222.177,380.324c.74-.044,17.4-.143,16.586,23.681a.776.776,0,0,0,.769.8.761.761,0,0,0,.77-.744c-.174-26.76-17.156-24.289-19.182-24.534" transform="translate(-1216.558 -378.403)"/></g></g><path class="a" d="M1077.7,869.37l45.493.493s-7.726-9.733-8.5-15.7C1114.694,854.162,1080.409,868.95,1077.7,869.37Z" transform="translate(-902.414 -592.103)"/><path class="c" d="M697.876,619.194,705.789,615H816.683l6.418,2.573,3.95,5.114,25.584,76.34,1.075,5.956-.639,4.954L849.7,715.6l-3.706,3.062-4.027,1.694h-6.978l-108.738.625Z" transform="translate(-665.653 -443.125)"/><path class="f" d="M1441.048,373.442h-81.067a14.748,14.748,0,0,0-14.7,14.714v54.407l17.671-17.691h78.092a14.749,14.749,0,0,0,14.7-14.714v-22A14.749,14.749,0,0,0,1441.048,373.442Z" transform="translate(-1069.21 -292.654)"/><path class="g" d="M811.73,727.811H707.812a15.841,15.841,0,0,1-15.079-10.431l-24.646-71.255c-3.406-9.849,4.248-20,15.079-20H787.084a15.841,15.841,0,0,1,15.079,10.431l24.646,71.255C830.215,717.655,822.56,727.811,811.73,727.811Z" transform="translate(-646.574 -450.052)"/><path class="h" d="M1117.362,582.156c-6.388.376-10.028-11.88-10.028-11.88s-24.557,3.461-33.281,14.934-16.254,26.453-16.254,26.453l18.956,58.79s2.04-4.574,3.569-4.816,6.343.014,8.018,1.835c0,0,5.088-2.4,11.193,1.42a22.1,22.1,0,0,1,12,2.286c5.66,3.088,10.645,5.258,10.645,5.258s.553,11.323-7.095,16.292l72.984.295s5.613-11.844,4.816-21.871-4.023-28.7-8.221-37.575-8.843-20.92-14.456-29.653-10.84-15.789-16.134-21.074l-3.254-2.392s-7.238-7.062-15.4-10.083c0,0-7.682,8.723-13.406,10.452C1122.014,580.827,1122.373,581.86,1117.362,582.156Z" transform="translate(-890.008 -415.265)"/><path class="b" d="M1143.287,834.224a75.1,75.1,0,0,0-12.96-6.383c-5.956-2.006-9.216-1.368-9.216-1.368a40.858,40.858,0,0,0-6.959-2.119,9.675,9.675,0,0,0-4.732.935,8.586,8.586,0,0,0-5.255-2.042c-3.075-.028-5.4,1.633-6.644,4.787,0,0,1.813,5.1,1.316,7.949s-2.419,10.424-7.724,12.4c0,0,3.129,3.927,7.779-.242,0,0,3.125,3.1,11.11,2.463,0,0,6.6.568,8.84-1.688a42.223,42.223,0,0,0,4.972-7.181s1.756,9.3,11.094,8.956c0,0,3.449-1.075,6.034-6.493A22.716,22.716,0,0,0,1143.287,834.224Z" transform="translate(-910.774 -572.845)"/><path class="c" d="M7.551,0c4.167,0,7.543,5.133,7.54,11.469S11.707,22.943,7.54,22.945,0,17.812,0,11.476,3.384,0,7.551,0Z" transform="translate(79.692 223.769) rotate(-30)"/><ellipse class="c" cx="6.71" cy="6.703" rx="6.71" ry="6.703" transform="translate(285.613 105.932) rotate(-80.783)"/><ellipse class="c" cx="6.71" cy="6.703" rx="6.71" ry="6.703" transform="translate(317.698 105.932) rotate(-80.783)"/><ellipse class="c" cx="6.704" cy="6.712" rx="6.704" ry="6.712" transform="translate(352.047 93.671)"/><path class="a" d="M1174.2,823.114s-12.578-7.283-17.611-7.414-4.222-.13-4.222-.13-9.2-3.759-11.11-1.979a21.572,21.572,0,0,1,18.157-7.779C1171.074,806.742,1174.22,821.509,1174.2,823.114Z" transform="translate(-942.033 -561.942)"/><path d="M748,243.9a.633.633,0,0,1-.6-.421,41.107,41.107,0,0,1-1.824-7.156.632.632,0,1,1,1.248-.2,39.678,39.678,0,0,0,1.767,6.934.633.633,0,0,1-.384.808A.641.641,0,0,1,748,243.9Zm-2.312-14.3a.635.635,0,0,1-.632-.644,42.139,42.139,0,0,1,.773-7.341.632.632,0,1,1,1.24.242,40.845,40.845,0,0,0-.749,7.121A.633.633,0,0,1,745.693,229.606Zm2.78-14.215a.634.634,0,0,1-.589-.862,40.552,40.552,0,0,1,2.136-4.616q.549-1.015,1.164-1.994a.632.632,0,1,1,1.069.674q-.593.943-1.122,1.923a39.813,39.813,0,0,0-2.069,4.472A.63.63,0,0,1,748.473,215.391Zm48.335-1.338a5.993,5.993,0,0,1-2.419-.562.633.633,0,0,1,.513-1.157,4.732,4.732,0,0,0,1.906.453,3.41,3.41,0,0,0,3.1-2.5.633.633,0,1,1,1.185.443A4.572,4.572,0,0,1,796.808,214.053Zm-7.584-5.247a.63.63,0,0,1-.513-.263,20.28,20.28,0,0,1-3.112-6.79.632.632,0,1,1,1.223-.319,19.013,19.013,0,0,0,2.915,6.369.633.633,0,0,1-.144.883A.625.625,0,0,1,789.224,208.806Zm10.953-4.784a.632.632,0,0,1-.588-.4,11.02,11.02,0,0,0-2.715-4c-.5-.472-1.03-.919-1.571-1.339a.632.632,0,1,1,.773-1q.861.667,1.66,1.413a12.313,12.313,0,0,1,3.029,4.457.632.632,0,0,1-.588.865Zm-44.009-.876a.633.633,0,0,1-.458-1.069,35.915,35.915,0,0,1,5.611-4.813.633.633,0,1,1,.717,1.042,34.543,34.543,0,0,0-5.413,4.644A.629.629,0,0,1,756.168,203.145Zm29.231-8.131a.635.635,0,0,1-.632-.644c0-.287.014-.575.027-.863q-1.247-.264-2.53-.417a.632.632,0,0,1,.149-1.256q1.245.149,2.462.4a33.518,33.518,0,0,1,.859-5.208.626.626,0,0,1,.763-.463.633.633,0,0,1,.462.766,32.408,32.408,0,0,0-.84,5.188,28.68,28.68,0,0,1,3.488,1.115.633.633,0,0,1-.462,1.178,27.066,27.066,0,0,0-3.1-1.006c-.008.2-.013.393-.016.589A.634.634,0,0,1,785.4,195.014Zm-17.328-.04a.633.633,0,0,1-.234-1.221,30.691,30.691,0,0,1,3.826-1.246,28.54,28.54,0,0,1,3.342-.638.632.632,0,1,1,.162,1.254,27.266,27.266,0,0,0-3.194.61,29.259,29.259,0,0,0-3.668,1.195A.632.632,0,0,1,768.071,194.974ZM788.875,181a.632.632,0,0,1-.561-.925,21.3,21.3,0,0,1,4.284-5.823l.167-.154a.632.632,0,0,1,.868.92l-.176.163a19.989,19.989,0,0,0-4.021,5.477A.632.632,0,0,1,788.875,181Zm9.889-10.487a.633.633,0,0,1-.38-1.138,59.708,59.708,0,0,1,6.115-4.07.632.632,0,1,1,.63,1.1,58.727,58.727,0,0,0-5.985,3.984A.632.632,0,0,1,798.764,170.513Zm47.541-4.3a.628.628,0,0,1-.323-.09A41.108,41.108,0,0,0,839.537,163a.633.633,0,0,1,.45-1.183,42.4,42.4,0,0,1,6.641,3.219.633.633,0,0,1-.323,1.176Zm-34.951-2.893a.633.633,0,0,1-.231-1.221,42.651,42.651,0,0,1,7.064-2.107.633.633,0,0,1,.253,1.24,41.4,41.4,0,0,0-6.855,2.043A.623.623,0,0,1,811.354,163.316Zm21.412-2.237a.645.645,0,0,1-.114-.011,37.314,37.314,0,0,0-6.684-.608l-.431,0a.654.654,0,0,1-.638-.626.633.633,0,0,1,.626-.64l.444,0a38.616,38.616,0,0,1,6.912.629.633.633,0,0,1-.114,1.256Z" transform="translate(-695.065 -159.195)"/><path d="M1254.844,826.75a.627.627,0,0,1-.415-.157c-20.2-17.669-65.59-20.584-66.047-20.612a.632.632,0,0,1-.592-.669.624.624,0,0,1,.669-.593c.461.027,46.284,2.971,66.8,20.923a.633.633,0,0,1-.415,1.109Z" transform="translate(-971.036 -561.303)"/><path d="M1315.423,691.969a.614.614,0,0,1-.29-.071.632.632,0,0,1-.271-.852c13.165-25.485-6.864-69.811-19.294-89.687a128.925,128.925,0,0,0-10.806-15.3c-3.706-4.35-17.334-13.562-22.969-16.516a.632.632,0,0,1,.586-1.12c5.542,2.905,19.5,12.3,23.344,16.814a129.915,129.915,0,0,1,10.916,15.444c13.49,21.573,32.744,65,19.345,90.94A.633.633,0,0,1,1315.423,691.969Z" transform="translate(-1016.955 -414.069)"/><path d="M1279.729,728.681a.645.645,0,0,1-.629-.695c2.161-21.923-10.06-58.37-10.183-58.734a.632.632,0,1,1,1.2-.406c.123.368,12.43,37.073,10.244,59.264A.633.633,0,0,1,1279.729,728.681Z" transform="translate(-1021.586 -476.398)"/><path d="M849.773,747.561a8.7,8.7,0,0,1-3.886-1.007,16.629,16.629,0,0,1-8.454-14.657c.163-2.809,1.32-4.972,3.256-6.09,3.9-2.262,9.791.614,13.127,6.392s2.871,12.321-1.033,14.578A5.925,5.925,0,0,1,849.773,747.561Zm-6.058-21.278a4.732,4.732,0,0,0-2.4.617c-1.554.9-2.486,2.7-2.625,5.07a15.364,15.364,0,0,0,7.759,13.452c2.118,1.067,4.144,1.156,5.7.259,3.3-1.908,3.555-7.673.57-12.851C850.391,728.791,846.763,726.283,843.715,726.283Z" transform="translate(-752.633 -511.667)"/><path d="M1037.011,894.85H621.657c-.455,0-.823-.163-.823-.364s.368-.364.823-.364h415.354c.454,0,.823.163.823.364S1037.465,894.85,1037.011,894.85Z" transform="translate(-620.834 -616.484)"/><path d="M849.923,719.833a.633.633,0,0,1,0-1.266A15.268,15.268,0,0,0,864.4,698.494l-24.646-74.464a15.23,15.23,0,0,0-14.478-10.468H721.359a15.518,15.518,0,0,0-3.381.371.632.632,0,0,1-.276-1.234,16.7,16.7,0,0,1,3.657-.4H825.277a16.494,16.494,0,0,1,15.679,11.337L865.6,698.1a16.534,16.534,0,0,1-15.679,21.736Z" transform="translate(-677.704 -441.44)"/><path d="M810.683,727.4H706.765a16.449,16.449,0,0,1-15.676-10.856l-24.646-71.256a15.194,15.194,0,0,1,2.03-13.925,16.715,16.715,0,0,1,13.645-6.919H786.037A16.447,16.447,0,0,1,801.714,635.3l24.645,71.254a15.2,15.2,0,0,1-2.031,13.925A16.715,16.715,0,0,1,810.683,727.4ZM682.119,625.708A15.453,15.453,0,0,0,669.5,632.1a13.94,13.94,0,0,0-1.864,12.775l24.646,71.256a15.182,15.182,0,0,0,14.481,10.006H810.683a15.445,15.445,0,0,0,12.615-6.387,13.942,13.942,0,0,0,1.866-12.779l-24.646-71.254a15.182,15.182,0,0,0-14.481-10.006Z" transform="translate(-645.528 -449.007)"/><path d="M1141.628,855.518c-2.424,0-4.046-.647-4.822-1.924-1.5-2.475.572-6.49,2.24-9.715.346-.666.666-1.286.919-1.829.273-.585.54-1.275.829-2.019,1.746-4.492,4.387-11.287,13.632-9.673.5.135,10.745,3.037,17.038,7.419a.632.632,0,0,1-.722,1.037c-6.118-4.26-16.49-7.2-16.593-7.224-8.192-1.42-10.486,4.547-12.176,8.9-.3.773-.578,1.488-.864,2.1-.258.555-.586,1.191-.939,1.873-1.443,2.79-3.418,6.61-2.282,8.479.531.872,1.788,1.315,3.742,1.315,8.452,0,9.874-10.6,9.874-10.7a.632.632,0,0,1,1.265,0C1152.767,845.041,1150.554,855.518,1141.628,855.518Z" transform="translate(-938.933 -577.124)"/><path d="M1117.786,851.664c-5.064-.325-6.823-2.114-7.412-3.557-.808-1.979.166-4.1,1.348-5.419.929-1.039,1.92-3.58,2.969-6.268,1.473-3.775,3.143-8.052,5.427-10.54,4.184-4.553,12.764.262,13.127.468a.633.633,0,0,1-.625,1.1c-.081-.048-8.068-4.526-11.571-.712-2.125,2.312-3.75,6.474-5.182,10.144-1.139,2.92-2.124,5.442-3.205,6.652-.884.99-1.708,2.657-1.118,4.1.649,1.591,2.821,2.549,6.283,2.772a.633.633,0,0,1-.042,1.264Z" transform="translate(-922.596 -573.27)"/><path d="M1188.488,880.016c-.215,0-.434-.006-.654-.018-11.34-.566-12.167-9.809-12.175-9.9a.633.633,0,0,1,.582-.677.612.612,0,0,1,.68.58c.027.336.775,8.227,10.977,8.737a10.715,10.715,0,0,0,1.792-.055.639.639,0,0,1,.7.552.632.632,0,0,1-.551.7A11.2,11.2,0,0,1,1188.488,880.016Z" transform="translate(-963.474 -601.605)"/><path d="M1165.634,839.4a.633.633,0,0,1-.347-1.161,17.752,17.752,0,0,0,7.459-17.665,18.129,18.129,0,0,0-6.8-11.607,16.084,16.084,0,0,0-12.452-3.261c-2.979.473-7.552,1.751-12.821,7.383a.633.633,0,1,1-.922-.866c5.535-5.914,10.381-7.265,13.547-7.766a17.378,17.378,0,0,1,13.42,3.508,19.388,19.388,0,0,1,7.273,12.412,19.016,19.016,0,0,1-8.013,18.918A.62.62,0,0,1,1165.634,839.4Z" transform="translate(-940.988 -561.012)"/><path d="M1107.706,827.307a.656.656,0,0,1-.162-.022.632.632,0,0,1-.45-.771c.044-.17,1.122-4.158,4.208-5.441,3.856-1.615,8.279,1.958,8.466,2.111a.632.632,0,1,1-.8.98c-.04-.032-4.03-3.234-7.183-1.924-2.5,1.042-3.46,4.56-3.47,4.6A.635.635,0,0,1,1107.706,827.307Z" transform="translate(-920.723 -571.231)"/><path d="M1093.085,889.88a7.686,7.686,0,0,1-3.816-1.088.632.632,0,0,1,.621-1.1,5.756,5.756,0,0,0,7.518-1.08.632.632,0,1,1,.982.8A7.385,7.385,0,0,1,1093.085,889.88Z" transform="translate(-909.424 -612.171)"/><path d="M1105.37,721.62a.631.631,0,0,1-.608-.465c-10.686-38.724-2.208-62.853-2.121-63.093a.632.632,0,1,1,1.188.431c-.085.236-8.418,24.023,2.15,62.325a.63.63,0,0,1-.44.777A.62.62,0,0,1,1105.37,721.62Z" transform="translate(-915.92 -469.69)"/><path d="M693.649,619.735a.632.632,0,0,1-.311-1.183l9.112-5.146a.632.632,0,1,1,.621,1.1l-9.112,5.146A.624.624,0,0,1,693.649,619.735Z" transform="translate(-662.624 -442.08)"/><path d="M1328.534,427.472a.621.621,0,0,1-.243-.049.631.631,0,0,1-.39-.584V372.432a15.356,15.356,0,0,1,15.329-15.347H1424.3a15.356,15.356,0,0,1,15.331,15.347v22A15.356,15.356,0,0,1,1424.3,409.78h-77.83l-17.487,17.506A.632.632,0,0,1,1328.534,427.472Zm14.7-69.121a14.089,14.089,0,0,0-14.064,14.081v52.879l16.593-16.612a.63.63,0,0,1,.447-.186H1424.3a14.089,14.089,0,0,0,14.066-14.08v-22A14.09,14.09,0,0,0,1424.3,358.35Z" transform="translate(-1058.375 -282.465)"/><path d="M1464.072,420.617a7.345,7.345,0,1,1,7.337-7.345A7.349,7.349,0,0,1,1464.072,420.617Zm0-13.424a6.079,6.079,0,1,0,6.072,6.079A6.082,6.082,0,0,0,1464.072,407.192Z" transform="translate(-1138.682 -312.889)"/><path d="M1378.889,420.617a7.345,7.345,0,1,1,7.336-7.345A7.349,7.349,0,0,1,1378.889,420.617Zm0-13.424a6.079,6.079,0,1,0,6.072,6.079A6.083,6.083,0,0,0,1378.889,407.192Z" transform="translate(-1085.584 -312.889)"/><path d="M1552.646,420.617a7.345,7.345,0,1,1,7.337-7.345A7.349,7.349,0,0,1,1552.646,420.617Zm0-13.424a6.079,6.079,0,1,0,6.072,6.079A6.082,6.082,0,0,0,1552.646,407.192Z" transform="translate(-1193.894 -312.889)"/><path d="M770.525,544.122a.629.629,0,0,1-.379-.127,51.494,51.494,0,0,1-5.56-4.825.632.632,0,0,1,.893-.894,50.408,50.408,0,0,0,5.424,4.707.633.633,0,0,1-.379,1.138Zm-10.246-10.268a.631.631,0,0,1-.507-.254,53.57,53.57,0,0,1-3.984-6.189.632.632,0,0,1,1.106-.612,52.287,52.287,0,0,0,3.891,6.043.632.632,0,0,1-.128.885A.624.624,0,0,1,760.279,533.855Zm-7.018-12.707a.631.631,0,0,1-.589-.4c-.525-1.347-1.011-2.747-1.446-4.162a.631.631,0,1,1,1.207-.371c.426,1.385.9,2.755,1.416,4.073a.634.634,0,0,1-.359.82A.656.656,0,0,1,753.261,521.148Z" transform="translate(-698.891 -381.309)"/><path d="M1056.825,612.456a.641.641,0,0,1-.246-.049.635.635,0,0,1-.338-.83q.347-.823.7-1.641c9.694-22.422,22.626-34.992,39.533-38.434,1.317-.268,5.29-.963,5.29-.963l.219,1.247s-3.948.688-5.257.956c-16.7,3.4-28.974,15.378-38.625,37.694-.233.542-.466,1.086-.694,1.632A.633.633,0,0,1,1056.825,612.456Z" transform="translate(-889.007 -415.43)"/><g transform="translate(211.894 153.814)"><path d="M1175.123,568.561a1.623,1.623,0,0,1,.41-.076,10.387,10.387,0,0,0,3.97-1.257.577.577,0,0,1,.844.148.7.7,0,0,1-.026.924,12.17,12.17,0,0,1-4.878,1.449c-.318.023-.574-.4-.552-.761C1174.907,568.757,1174.952,568.641,1175.123,568.561Z" transform="translate(-1174.891 -567.103)"/></g><g transform="translate(228.079 123.129)"><path class="e" d="M1218.352,524.419a2.511,2.511,0,1,1,3.511.525l-.036.026a2.486,2.486,0,0,1-3.475-.551Z" transform="translate(-1217.859 -507.332)"/><path class="e" d="M1227.174,501.656l-.184-.861,9.211-1.975a8.572,8.572,0,0,0,6.781-8.8l-.191-4.257.879-.04.192,4.257a9.45,9.45,0,0,1-7.476,9.7Z" transform="translate(-1223.551 -485.727)"/></g><ellipse class="c" cx="6.88" cy="13.47" rx="6.88" ry="13.47" transform="translate(240.584 108.394)"/><g transform="translate(216.181 153.863)"><path d="M1215.611,568.121a1.047,1.047,0,0,0-.156-.3c-.3-.416-.9-.562-1.187-.194-4,5.05-12.853,12.318-17.546,11.517-6.516-1.11-8.925-11.464-8.966-11.521a.8.8,0,0,0-1.185-.21.986.986,0,0,0-.1,1.3c.185.261,3.086,10.814,10.348,11.8,6.424.874,13.434-6.892,18.554-11.388A.952.952,0,0,0,1215.611,568.121Z" transform="translate(-1186.272 -567.232)"/></g><g transform="translate(264.375 30.243)"><path d="M1333.619,241.062h-18.565a.832.832,0,0,1,0-1.665h18.565a.832.832,0,0,1,0,1.665Z" transform="translate(-1314.223 -239.397)"/></g><g transform="translate(185.656 30.243)"><path d="M1176.035,241.062h-69.973a.832.832,0,1,1,0-1.665h69.973a.832.832,0,0,1,0,1.665Z" transform="translate(-1105.23 -239.397)"/></g><g transform="translate(185.656 45.08)"><path d="M1181.126,280.409h-75.063a.832.832,0,1,1,0-1.665h75.063a.832.832,0,0,1,0,1.665Z" transform="translate(-1105.23 -278.744)"/></g><g transform="translate(238.502 59.919)"><path d="M1290.8,319.763h-44.437a.832.832,0,0,1,0-1.665H1290.8a.832.832,0,0,1,0,1.665Z" transform="translate(-1245.532 -318.098)"/></g><g transform="translate(185.656 59.919)"><path d="M1125.879,319.763h-19.816a.832.832,0,1,1,0-1.665h19.816a.832.832,0,1,1,0,1.665Z" transform="translate(-1105.23 -318.098)"/></g><g transform="translate(34.458 71.078)"><path class="e" d="M721.741,351.108l17.582,10.817a5.554,5.554,0,0,1,1.845,7.423l-6.29,11.122a5.08,5.08,0,0,1-7.121,1.907l-17.582-10.817a5.554,5.554,0,0,1-1.845-7.422l6.289-11.122A5.08,5.08,0,0,1,721.741,351.108Z" transform="translate(-706.18 -349.349)"/><path d="M728.567,382.509a3.144,3.144,0,0,1-1.675-.484L705.3,368.48a3.173,3.173,0,0,1-1-4.371l9.342-14.93a3.167,3.167,0,0,1,4.367-1L739.6,361.719a3.176,3.176,0,0,1,1,4.37l-9.342,14.931a3.146,3.146,0,0,1-1.975,1.406A3.181,3.181,0,0,1,728.567,382.509Zm-12.243-33.367a1.721,1.721,0,0,0-1.461.807l-9.342,14.929a1.725,1.725,0,0,0,.544,2.373l21.6,13.548a1.721,1.721,0,0,0,2.37-.545l9.342-14.93a1.725,1.725,0,0,0-.544-2.373l-21.6-13.546A1.7,1.7,0,0,0,716.325,349.141Z" transform="translate(-703.811 -347.691)"/></g><path d="M742.884,378.265a.724.724,0,0,1-.658-.422l-4.871-10.608a.725.725,0,1,1,1.317-.608l4.87,10.608a.725.725,0,0,1-.657,1.027Z" transform="translate(-690.221 -288.146)"/><path d="M751.13,395.5a.725.725,0,0,1-.014-1.449l11.659-.241a.749.749,0,0,1,.74.71.726.726,0,0,1-.709.739l-11.659.241Z" transform="translate(-698.409 -305.338)"/><path class="e" d="M755.812,488.375l-3.466-4.3a1.95,1.95,0,0,0-1.358-.637l-.583.011a4.225,4.225,0,0,0-1.526.341c-1.369.562-3.576.581-6.465-4.428-2.872-4.98-1.781-6.892-.617-7.8a5.266,5.266,0,0,0,1.249-1.452l.13-.216a1.942,1.942,0,0,0,.129-1.5l-1.988-5.157a1.049,1.049,0,0,0-1.122-.628l-1.282.235a4.8,4.8,0,0,0-2.788,1.57c-3.025,3.541-2.521,10.64,1.544,17.688,4.075,7.067,9.978,11.059,14.561,10.179a4.737,4.737,0,0,0,2.7-1.6l.865-1.018A1.048,1.048,0,0,0,755.812,488.375Z" transform="translate(-688.285 -348.189)"/><path d="M750.929,491.911c-4.7,0-10.123-4.1-13.918-10.676-4.174-7.238-4.763-14.695-1.464-18.555a5.57,5.57,0,0,1,3.231-1.823l1.275-.234A1.8,1.8,0,0,1,742,461.7l2.011,5.221a2.711,2.711,0,0,1-.179,2.078l-.151.255a5.983,5.983,0,0,1-1.422,1.651c-.542.425-2.168,1.7.8,6.838,2.973,5.157,4.9,4.367,5.526,4.108a4.944,4.944,0,0,1,1.787-.4l.618-.012h.023a2.721,2.721,0,0,1,1.883.883l.029.034,3.48,4.321a1.8,1.8,0,0,1-.027,2.208l-.88,1.037a5.505,5.505,0,0,1-3.127,1.854A7.645,7.645,0,0,1,750.929,491.911Zm-10.583-29.8a.3.3,0,0,0-.045,0l-1.258.231a4.061,4.061,0,0,0-2.356,1.325c-2.834,3.317-2.166,10.234,1.629,16.815,3.808,6.605,9.473,10.637,13.767,9.815a4,4,0,0,0,2.266-1.347l.868-1.022a.288.288,0,0,0-.006-.333l-3.441-4.27a1.206,1.206,0,0,0-.8-.376l-.557.01a3.445,3.445,0,0,0-1.243.279c-2.548,1.048-4.97-.506-7.414-4.744-2.436-4.224-2.576-7.093-.429-8.774a4.488,4.488,0,0,0,1.062-1.238l.122-.2a1.2,1.2,0,0,0,.076-.879l-1.98-5.135A.286.286,0,0,0,740.346,462.107Z" transform="translate(-687.812 -346.946)"/><g transform="translate(195.869 177.655)"><path class="c" d="M1162.3,646.066l19.378-5.227,1.912-10.512-20.479,8.9a22.519,22.519,0,0,1-8.976,1.866h-2.506l-2.42,5.752h7.225A22.524,22.524,0,0,0,1162.3,646.066Z" transform="translate(-1142.857 -630.327)"/><path class="c" d="M1140.874,678.452h14.134l18.844.984,1.882-10.347-19.362,3.438a22.507,22.507,0,0,1-3.938.347h-9.215Z" transform="translate(-1137.661 -654.473)"/><path class="c" d="M1147.055,698.92h-12.292l-2.419,5.752h12.981a34.428,34.428,0,0,1,10.092,1.512l11.018,3.379,1.355-7.449-15.123-2.7A31.951,31.951,0,0,0,1147.055,698.92Z" transform="translate(-1132.344 -673.055)"/></g></g></g></svg>